# xmcd
#
# Track frame offsets:
#	150
#	19287
#	38619
#	59668
#	78218
#	98745
#	121712
#	153324
#	171443
#	192205
#	217412
#	246067
#	271301
#	291943
#	295149
#	318994
#
# Disc length: 4575 seconds
#
# Revision: 0
# Processed by: cddbd v1.4PL0 Copyright (c) Steve Scherf et al.
# Submitted via: EasyCDDAExtractor 4.6.9.1
#
DISCID=e711dd10
DTITLE=Tony Joe White - One Hot July
DYEAR=1998
DGENRE=Blues
TTITLE0=Crack The Window Baby
TTITLE1=Gumbo John
TTITLE2=Across From Midnight
TTITLE3=Goin' Down Rockin'
TTITLE4=Cold Fingers
TTITLE5=I Want My Fleetwood Back
TTITLE6=I Believe I've Lost My Way
TTITLE7=Don't Over Do It
TTITLE8=The Delta Singer
TTITLE9=Ol' Black Crow
TTITLE10=One Hot July
TTITLE11=Conjure Woman
TTITLE12=Selena
TTITLE13=One Hot July (String Ensemble)
TTITLE14=Going Back To Bed
TTITLE15=Drifter
EXTD=
EXTT0=
EXTT1=
EXTT2=
EXTT3=
EXTT4=
EXTT5=
EXTT6=
EXTT7=
EXTT8=
EXTT9=
EXTT10=
EXTT11=
EXTT12=
EXTT13=
EXTT14=
EXTT15=
PLAYORDER=
